<?xml version="1.0" encoding="utf-8"?>
<!-- Generator: Adobe Illustrator 17.0.0, SVG Export Plug-In . SVG Version: 6.00 Build 0)  -->
<!DOCTYPE svg PUBLIC "-//W3C//DTD SVG 1.1//EN" "http://www.w3.org/Graphics/SVG/1.1/DTD/svg11.dtd">
<svg version="1.1" id="Layer_1" xmlns="http://www.w3.org/2000/svg" xmlns:xlink="http://www.w3.org/1999/xlink" x="0px" y="0px"
	 width="40px" height="40px" viewBox="0 0 40 40" enable-background="new 0 0 40 40" xml:space="preserve">
<g>
	<g>
		<path fill="#030303" d="M22.001,32.581h-4.846v-4.246c-3.946-0.772-6.948-4.718-6.948-9.049c0-4.246,2.959-8.106,6.948-8.92V6.42
			h4.846v3.945c2.187,0.729,3.045,1.201,4.203,2.402c1.243,1.287,2.015,2.745,2.316,4.203h-5.447
			c-0.643-1.072-2.102-1.801-3.602-1.801c-2.316,0-4.16,1.844-4.16,4.246c0,2.401,1.844,4.246,4.246,4.246
			c1.244,0,2.016-0.343,3.302-1.544h5.661c-0.643,1.544-1.415,2.831-2.359,3.817c-1.115,1.201-2.23,1.844-4.16,2.402L22.001,32.581
			L22.001,32.581L22.001,32.581z"/>
	</g>
	<g>
		<path fill="#030303" d="M-0.5,19.5c0,11.028,8.972,20,20,20s20-8.972,20-20c0-11.028-8.972-20-20-20S-0.5,8.472-0.5,19.5z
			 M4.41,19.5c0-8.321,6.77-15.09,15.09-15.09s15.09,6.77,15.09,15.09s-6.77,15.09-15.09,15.09S4.41,27.821,4.41,19.5z"/>
	</g>
</g>
</svg>
